<svg xmlns="http://www.w3.org/2000/svg" xmlns:xlink="http://www.w3.org/1999/xlink" width="412" zoomAndPan="magnify" viewBox="0 0 309 83.999999" height="112" preserveAspectRatio="xMidYMid meet" version="1.0"><defs><g/><clipPath id="3410d74ec4"><path d="M 278 47 L 309 47 L 309 83.25 L 278 83.25 Z M 278 47 " clip-rule="nonzero"/></clipPath></defs><g clip-path="url(#3410d74ec4)"><path fill="#4b4a4a" d="M 301.675781 83.378906 L 292.824219 72.140625 L 286.957031 80.707031 L 278.078125 47.367188 L 308.410156 63.796875 L 298.730469 67.53125 L 307.558594 78.742188 Z M 301.675781 83.378906 " fill-opacity="1" fill-rule="nonzero"/></g><path fill="#4b4a4a" d="M 46.191406 18.433594 C 45.035156 14.871094 43.476562 11.890625 41.621094 9.675781 C 45.550781 11.011719 49.070312 13.3125 51.921875 16.410156 C 50.222656 17.214844 48.300781 17.890625 46.191406 18.433594 Z M 46.191406 18.433594 " fill-opacity="1" fill-rule="nonzero"/><path fill="#4b4a4a" d="M 32.132812 57.890625 C 29.722656 57.210938 27.414062 54.859375 25.574219 51.203125 C 25 50.0625 24.476562 48.800781 24.011719 47.4375 C 26.59375 46.960938 29.324219 46.683594 32.125 46.609375 L 32.125 57.890625 Z M 32.132812 57.890625 " fill-opacity="1" fill-rule="nonzero"/><path fill="#4b4a4a" d="M 21.871094 31.738281 C 21.96875 28.292969 22.402344 25 23.164062 21.945312 C 26.023438 22.488281 29.03125 22.808594 32.132812 22.882812 L 32.132812 31.738281 Z M 21.871094 31.738281 " fill-opacity="1" fill-rule="nonzero"/><path fill="#4b4a4a" d="M 32.132812 19.90625 C 29.324219 19.835938 26.589844 19.558594 24 19.078125 C 24.460938 17.703125 24.992188 16.417969 25.574219 15.257812 C 27.40625 11.601562 29.722656 9.257812 32.132812 8.566406 Z M 32.132812 19.90625 " fill-opacity="1" fill-rule="nonzero"/><path fill="#4b4a4a" d="M 23.179688 44.574219 C 22.410156 41.503906 21.972656 38.195312 21.871094 34.71875 L 32.132812 34.71875 L 32.132812 43.636719 C 29.039062 43.714844 26.03125 44.027344 23.179688 44.574219 Z M 23.179688 44.574219 " fill-opacity="1" fill-rule="nonzero"/><path fill="#4b4a4a" d="M 8.792969 31.738281 C 9.070312 27.050781 10.648438 22.589844 13.386719 18.773438 C 15.386719 19.789062 17.6875 20.632812 20.242188 21.292969 C 19.441406 24.550781 18.992188 28.0625 18.898438 31.738281 Z M 8.792969 31.738281 " fill-opacity="1" fill-rule="nonzero"/><path fill="#4b4a4a" d="M 25.617188 56.78125 C 21.707031 55.453125 18.195312 53.160156 15.351562 50.085938 C 17.042969 49.296875 18.949219 48.621094 21.058594 48.078125 C 22.214844 51.617188 23.765625 54.582031 25.617188 56.78125 Z M 25.617188 56.78125 " fill-opacity="1" fill-rule="nonzero"/><path fill="#4b4a4a" d="M 13.414062 47.726562 C 10.664062 43.90625 9.070312 39.429688 8.792969 34.71875 L 18.890625 34.71875 C 18.984375 38.421875 19.441406 41.945312 20.246094 45.226562 C 17.707031 45.878906 15.417969 46.71875 13.414062 47.726562 Z M 13.414062 47.726562 " fill-opacity="1" fill-rule="nonzero"/><path fill="#4b4a4a" d="M 21.046875 18.433594 C 18.933594 17.890625 17.011719 17.207031 15.316406 16.410156 C 18.160156 13.3125 21.683594 11.003906 25.617188 9.671875 C 23.757812 11.890625 22.199219 14.878906 21.046875 18.433594 Z M 21.046875 18.433594 " fill-opacity="1" fill-rule="nonzero"/><path fill="#4b4a4a" d="M 48.335938 31.738281 C 48.242188 28.0625 47.785156 24.558594 46.996094 21.292969 C 49.542969 20.632812 51.839844 19.785156 53.84375 18.773438 C 56.578125 22.589844 58.160156 27.050781 58.4375 31.738281 Z M 48.335938 31.738281 " fill-opacity="1" fill-rule="nonzero"/><path fill="#4b4a4a" d="M 53.816406 47.726562 C 51.820312 46.71875 49.519531 45.878906 46.980469 45.226562 C 47.785156 41.945312 48.242188 38.421875 48.335938 34.71875 L 58.4375 34.71875 C 58.160156 39.421875 56.570312 43.90625 53.816406 47.726562 Z M 53.816406 47.726562 " fill-opacity="1" fill-rule="nonzero"/><path fill="#4b4a4a" d="M 41.621094 56.78125 C 43.46875 54.578125 45.023438 51.617188 46.175781 48.078125 C 48.28125 48.621094 50.195312 49.289062 51.886719 50.085938 C 49.042969 53.167969 45.53125 55.453125 41.621094 56.78125 Z M 41.621094 56.78125 " fill-opacity="1" fill-rule="nonzero"/><path fill="#4b4a4a" d="M 35.105469 31.738281 L 35.105469 22.882812 C 38.203125 22.800781 41.214844 22.488281 44.070312 21.945312 C 44.832031 25 45.261719 28.292969 45.363281 31.738281 Z M 35.105469 31.738281 " fill-opacity="1" fill-rule="nonzero"/><path fill="#4b4a4a" d="M 35.105469 8.574219 C 37.515625 9.257812 39.820312 11.605469 41.664062 15.265625 C 42.242188 16.425781 42.773438 17.703125 43.238281 19.085938 C 40.648438 19.566406 37.921875 19.839844 35.105469 19.914062 Z M 35.105469 8.574219 " fill-opacity="1" fill-rule="nonzero"/><path fill="#4b4a4a" d="M 44.058594 44.574219 C 41.207031 44.027344 38.195312 43.714844 35.105469 43.636719 L 35.105469 34.71875 L 45.363281 34.71875 C 45.261719 38.195312 44.828125 41.503906 44.058594 44.574219 Z M 44.058594 44.574219 " fill-opacity="1" fill-rule="nonzero"/><path fill="#4b4a4a" d="M 35.105469 46.609375 C 37.914062 46.683594 40.632812 46.960938 43.214844 47.4375 C 42.757812 48.792969 42.238281 50.0625 41.65625 51.203125 C 39.820312 54.859375 37.507812 57.203125 35.097656 57.890625 L 35.097656 46.609375 Z M 35.105469 46.609375 " fill-opacity="1" fill-rule="nonzero"/><path fill="#4b4a4a" d="M 297.976562 33.234375 C 297.976562 14.921875 283.074219 0.0234375 264.765625 0.0234375 L 33.515625 0.0234375 C 15.207031 0.0234375 0.304688 14.921875 0.304688 33.234375 C 0.304688 51.542969 15.207031 66.445312 33.515625 66.445312 L 264.773438 66.445312 C 269.851562 66.445312 274.652344 65.292969 278.960938 63.246094 L 278.242188 60.539062 C 274.179688 62.554688 269.601562 63.695312 264.773438 63.695312 L 33.515625 63.695312 C 16.714844 63.695312 3.054688 50.027344 3.054688 33.234375 C 3.054688 16.433594 16.722656 2.769531 33.515625 2.769531 L 264.773438 2.769531 C 281.574219 2.769531 295.234375 16.4375 295.234375 33.234375 C 295.234375 39.457031 293.347656 45.253906 290.125 50.078125 L 292.578125 51.355469 C 295.988281 46.140625 297.976562 39.914062 297.976562 33.234375 Z M 297.976562 33.234375 " fill-opacity="1" fill-rule="nonzero"/><g fill="#ffffff" fill-opacity="1"><g transform="translate(65.39921, 44.326012)"><g><path d="M 19.578125 0 L 18.515625 -3.546875 L 9.703125 -3.546875 L 8.640625 0 L 0.359375 0 L 9.546875 -25.171875 L 18.953125 -25.171875 L 28.140625 0 Z M 11.375 -9.1875 L 16.828125 -9.1875 L 14.203125 -18.15625 L 14.046875 -18.15625 Z M 11.375 -9.1875 "/></g></g></g><g fill="#ffffff" fill-opacity="1"><g transform="translate(91.776945, 44.326012)"><g><path d="M 14.703125 -25.609375 C 18.441406 -25.609375 21.394531 -24.675781 23.5625 -22.8125 C 25.738281 -20.945312 26.828125 -18.285156 26.828125 -14.828125 L 19.109375 -14.828125 C 19.109375 -16.285156 18.722656 -17.441406 17.953125 -18.296875 C 17.179688 -19.148438 16.085938 -19.578125 14.671875 -19.578125 C 13.035156 -19.578125 11.832031 -19.0625 11.0625 -18.03125 C 10.300781 -17.007812 9.921875 -15.585938 9.921875 -13.765625 L 9.921875 -11.421875 C 9.921875 -9.609375 10.300781 -8.179688 11.0625 -7.140625 C 11.832031 -6.109375 13.007812 -5.59375 14.59375 -5.59375 C 16.15625 -5.59375 17.335938 -5.992188 18.140625 -6.796875 C 18.953125 -7.609375 19.359375 -8.742188 19.359375 -10.203125 L 26.828125 -10.203125 C 26.828125 -6.765625 25.769531 -4.128906 23.65625 -2.296875 C 21.550781 -0.472656 18.566406 0.4375 14.703125 0.4375 C 10.410156 0.4375 7.160156 -0.65625 4.953125 -2.84375 C 2.742188 -5.039062 1.640625 -8.289062 1.640625 -12.59375 C 1.640625 -16.882812 2.742188 -20.125 4.953125 -22.3125 C 7.160156 -24.507812 10.410156 -25.609375 14.703125 -25.609375 Z M 14.703125 -25.609375 "/></g></g></g><g fill="#4b4a4a" fill-opacity="1"><g transform="translate(118.15702, 44.326012)"><g><path d="M 2.234375 0 L 2.234375 -7.28125 L 9.984375 -7.28125 L 9.984375 0 Z M 2.234375 0 "/></g></g></g><g fill="#4b4a4a" fill-opacity="1"><g transform="translate(128.254046, 44.326012)"><g><path d="M 13.609375 -25.171875 C 22.421875 -25.171875 26.828125 -20.976562 26.828125 -12.59375 C 26.828125 -4.195312 22.421875 0 13.609375 0 L 2.703125 0 L 2.703125 -25.171875 Z M 10.796875 -6.03125 L 13.46875 -6.03125 C 16.851562 -6.03125 18.546875 -7.847656 18.546875 -11.484375 L 18.546875 -13.6875 C 18.546875 -17.320312 16.851562 -19.140625 13.46875 -19.140625 L 10.796875 -19.140625 Z M 10.796875 -6.03125 "/></g></g></g><g fill="#4b4a4a" fill-opacity="1"><g transform="translate(154.631784, 44.326012)"><g><path d="M 12.1875 -19.765625 C 15.71875 -19.765625 18.414062 -18.929688 20.28125 -17.265625 C 22.15625 -15.609375 23.09375 -13.070312 23.09375 -9.65625 L 23.09375 -8.421875 L 8.59375 -8.421875 C 8.59375 -7.023438 8.90625 -5.972656 9.53125 -5.265625 C 10.15625 -4.554688 11.140625 -4.203125 12.484375 -4.203125 C 13.703125 -4.203125 14.597656 -4.457031 15.171875 -4.96875 C 15.742188 -5.488281 16.03125 -6.175781 16.03125 -7.03125 L 23.09375 -7.03125 C 23.09375 -4.6875 22.203125 -2.851562 20.421875 -1.53125 C 18.640625 -0.21875 16.039062 0.4375 12.625 0.4375 C 9.039062 0.4375 6.257812 -0.394531 4.28125 -2.0625 C 2.300781 -3.738281 1.3125 -6.269531 1.3125 -9.65625 C 1.3125 -12.976562 2.273438 -15.492188 4.203125 -17.203125 C 6.128906 -18.910156 8.789062 -19.765625 12.1875 -19.765625 Z M 12.484375 -15.109375 C 10.179688 -15.109375 8.898438 -14.023438 8.640625 -11.859375 L 15.734375 -11.859375 C 15.734375 -12.859375 15.445312 -13.648438 14.875 -14.234375 C 14.300781 -14.816406 13.503906 -15.109375 12.484375 -15.109375 Z M 12.484375 -15.109375 "/></g></g></g><g fill="#4b4a4a" fill-opacity="1"><g transform="translate(176.948489, 44.326012)"><g><path d="M 7.3125 0 L 0 -19.328125 L 7.828125 -19.328125 L 11.375 -7.28125 L 11.640625 -7.28125 L 15.1875 -19.328125 L 22.359375 -19.328125 L 14.96875 0 Z M 7.3125 0 "/></g></g></g><g fill="#ffffff" fill-opacity="1"><g transform="translate(197.223426, 44.326012)"><g><path d="M 21.625 0 L 18.375 -15.328125 L 18.21875 -15.328125 L 14.96875 0 L 6.078125 0 L 0.1875 -25.171875 L 8.59375 -25.171875 L 11.484375 -10.90625 L 11.640625 -10.90625 L 14.484375 -25.171875 L 22.46875 -25.171875 L 25.5 -10.90625 L 25.65625 -10.90625 L 28.359375 -25.171875 L 36.40625 -25.171875 L 30.515625 0 Z M 21.625 0 "/></g></g></g><g fill="#ffffff" fill-opacity="1"><g transform="translate(231.723228, 44.326012)"><g><path d="M 12.1875 -19.765625 C 15.71875 -19.765625 18.414062 -18.929688 20.28125 -17.265625 C 22.15625 -15.609375 23.09375 -13.070312 23.09375 -9.65625 L 23.09375 -8.421875 L 8.59375 -8.421875 C 8.59375 -7.023438 8.90625 -5.972656 9.53125 -5.265625 C 10.15625 -4.554688 11.140625 -4.203125 12.484375 -4.203125 C 13.703125 -4.203125 14.597656 -4.457031 15.171875 -4.96875 C 15.742188 -5.488281 16.03125 -6.175781 16.03125 -7.03125 L 23.09375 -7.03125 C 23.09375 -4.6875 22.203125 -2.851562 20.421875 -1.53125 C 18.640625 -0.21875 16.039062 0.4375 12.625 0.4375 C 9.039062 0.4375 6.257812 -0.394531 4.28125 -2.0625 C 2.300781 -3.738281 1.3125 -6.269531 1.3125 -9.65625 C 1.3125 -12.976562 2.273438 -15.492188 4.203125 -17.203125 C 6.128906 -18.910156 8.789062 -19.765625 12.1875 -19.765625 Z M 12.484375 -15.109375 C 10.179688 -15.109375 8.898438 -14.023438 8.640625 -11.859375 L 15.734375 -11.859375 C 15.734375 -12.859375 15.445312 -13.648438 14.875 -14.234375 C 14.300781 -14.816406 13.503906 -15.109375 12.484375 -15.109375 Z M 12.484375 -15.109375 "/></g></g></g><g fill="#ffffff" fill-opacity="1"><g transform="translate(254.039935, 44.326012)"><g><path d="M 9.515625 -17.53125 C 10.898438 -19.019531 12.707031 -19.765625 14.9375 -19.765625 C 17.539062 -19.765625 19.550781 -18.914062 20.96875 -17.21875 C 22.382812 -15.519531 23.09375 -13.015625 23.09375 -9.703125 C 23.09375 -6.359375 22.382812 -3.832031 20.96875 -2.125 C 19.550781 -0.414062 17.539062 0.4375 14.9375 0.4375 C 12.25 0.4375 10.195312 -0.625 8.78125 -2.75 L 8.15625 0 L 2.234375 0 L 2.234375 -26.53125 L 9.515625 -26.53125 Z M 12.65625 -14.375 C 11.582031 -14.375 10.773438 -13.988281 10.234375 -13.21875 C 9.703125 -12.457031 9.4375 -11.46875 9.4375 -10.25 L 9.4375 -9.03125 C 9.4375 -7.8125 9.703125 -6.820312 10.234375 -6.0625 C 10.773438 -5.3125 11.582031 -4.9375 12.65625 -4.9375 C 14.757812 -4.9375 15.8125 -6.179688 15.8125 -8.671875 L 15.8125 -10.609375 C 15.8125 -13.117188 14.757812 -14.375 12.65625 -14.375 Z M 12.65625 -14.375 "/></g></g></g></svg>